HIERARCHY
ROOT pelvis
{
  OFFSET 0 100 0
  CHANNELS 6 Xposition Yposition Zposition Zrotation Xrotation Yrotation
  JOINT pelvis_right_femur
  {
    OFFSET -10.78128 -3.44521 -0.5502486
    CHANNELS 3 Zrotation Xrotation Yrotation
    JOINT right_femur_tibia
    {
      OFFSET -0.8047443 -44.0398 -0.1307829
      CHANNELS 3 Zrotation Xrotation Yrotation
      JOINT right_tibia_foot
      {
        OFFSET 3.006224 -47.83518 -5
        CHANNELS 3 Zrotation Xrotation Yrotation
        End Site
        {
          OFFSET 0 -5 15
        }
      }
    }
  }
  JOINT pelvis_left_femur
  {
    OFFSET 10.78128 -3.44521 -0.5502486
    CHANNELS 3 Zrotation Xrotation Yrotation
    JOINT left_femur_tibia
    {
      OFFSET 0.8047443 -44.0398 -0.1307829
      CHANNELS 3 Zrotation Xrotation Yrotation
      JOINT left_tibia_foot
      {
        OFFSET -4.370144 -48.10324 -4.275266
        CHANNELS 3 Zrotation Xrotation Yrotation
        End Site
        {
          OFFSET 0 -5 15
        }
      }
    }
  }
  JOINT pelvis_spine1
  {
    OFFSET 0 6.468898 -3.129235
    CHANNELS 3 Zrotation Xrotation Yrotation
    JOINT spine1
    {
      OFFSET 0 23.15396 4.99043
      CHANNELS 3 Zrotation Xrotation Yrotation
      JOINT spine2
      {
        OFFSET 0 20.79997 -5.064912
        CHANNELS 3 Zrotation Xrotation Yrotation
        JOINT neck
        {
          OFFSET 0 14.38658 9.616178
          CHANNELS 3 Zrotation Xrotation Yrotation
          End Site
          {
            OFFSET 0 20 0
          }
        }
      }
      JOINT right_manubrium
      {
        OFFSET -5.722621 16.35077 3.967754
        CHANNELS 3 Zrotation Xrotation Yrotation
        JOINT right_clavicle
        {
          OFFSET -13.16364 1.694482 -4.693211
          CHANNELS 3 Zrotation Xrotation Yrotation
          JOINT right_humerus
          {
            OFFSET -28.5034 -0.3100689 -2.792744
            CHANNELS 3 Zrotation Xrotation Yrotation
            JOINT right_radius
            {
              OFFSET -25.15693 0.02248979 -1.271978
              CHANNELS 3 Zrotation Xrotation Yrotation
              End Site
              {
                OFFSET -15 0 0
              }
            }
          }
        }
      }
      JOINT left_manubrium
      {
        OFFSET 5.722621 16.35077 3.967754
        CHANNELS 3 Zrotation Xrotation Yrotation
        JOINT left_clavicle
        {
          OFFSET 13.16364 1.694482 -4.693211
          CHANNELS 3 Zrotation Xrotation Yrotation
          JOINT left_humerus
          {
            OFFSET 29.39168 -1.063119 -2.237045
            CHANNELS 3 Zrotation Xrotation Yrotation
            JOINT left_radius
            {
              OFFSET 24.59957 -0.9528479 0.9047498
              CHANNELS 3 Zrotation Xrotation Yrotation
              End Site
              {
                OFFSET 15 -0 -0
              }
            }
          }
        }
      }
    }
  }
}
MOTION
Frames: 11
Frame Time: 0.0416666666667
0 103.5113 0 2.942176 0.7871622 0.2287513 2.762203 -15.1472 11.12753 -0 36.6413 -0 -3.934889 -19.28001 -3.744342 -9.697264 9.697031 -22.67889 -0 4.74174 -0 21.87434 -10.04534 30.65407 -2.807446 -2.375281 4.479105 2.721451 10.40491 -7.28551 1.768674 21.54895 6.839412 2.822823 -25.18832 10.51087 5.846082 -18.98979 11.37363 87.11483 38.49595 -18.6582 -0 0 13.42268 -6.21516 8.374508 4.193755 5.54465 -20.01389 -1.798766 -90.73164 21.25713 18.6226 0 0 -17.16121 15.05086 12.65966 -3.57856
0.3872489 103.4059 1.724401 2.31347 1.60832 0.461301 4.108064 -17.85372 11.95107 -0 36.27184 -0 -4.105834 -18.21683 -3.508731 -9.499351 9.634072 -22.45043 -0 5.089008 -0 22.8178 -10.12882 31.32674 -2.83597 -2.209669 4.363711 2.857679 10.51556 -7.38158 1.663045 21.41329 7.117938 2.890109 -25.71381 10.7304 5.7684 -19.12387 11.50251 87.79364 39.02318 -19.37199 -0 0 12.72299 -5.839966 8.239546 4.367064 5.383156 -20.08805 -2.184547 -90.02263 21.414 18.15999 0 0 -19.3006 15.43407 11.57109 -3.605149
0.7226783 103.0443 3.834424 1.491613 1.334137 0.6780007 4.568282 -21.30918 8.818434 -0 31.27537 -0 -5.097699 -14.64402 -2.424047 -8.414036 11.11961 -21.6393 -0 5.518056 -0 17.24819 -14.43725 28.53755 -2.942151 -2.300382 4.361751 2.885394 10.54261 -7.450211 1.622655 21.3249 7.267992 2.957247 -26.11087 10.89845 5.748734 -19.40902 11.4839 88.01102 39.27425 -19.58193 -0 0 12.78922 -5.61835 8.060856 4.342494 5.417911 -20.15825 -2.215908 -89.96685 21.53873 18.1988 0 0 -19.83791 15.76317 11.2983 -3.826503
1.049286 102.6545 6.119102 0.8645059 1.842619 0.8459264 5.445879 -23.94981 8.725672 -0 29.49755 -0 -5.215726 -13.11153 -2.188497 -7.912342 11.49295 -21.35848 -0 5.768648 -0 15.38825 -16.1375 27.81868 -2.956312 -2.322001 4.328547 3.023319 10.58306 -7.575413 1.549503 21.22082 7.372539 2.961175 -26.49596 10.97614 5.710439 -19.52678 11.5383 88.26683 39.20684 -20.0337 -0 0 12.54867 -5.374043 7.942992 4.389849 5.391538 -20.25194 -2.33688 -89.86281 21.79165 18.233 0 0 -20.66763 15.77254 10.92649 -3.619483
1.362864 102.1355 8.778355 0.3570089 2.155124 1.046508 5.994967 -26.97417 7.457123 -0 26.26329 -0 -5.950378 -10.59889 -1.664372 -7.462347 12.19469 -20.35834 -0 6.560841 -0 13.86827 -17.70739 26.31608 -2.957893 -2.334572 4.295464 3.154335 10.61354 -7.688164 1.479476 21.12342 7.465933 2.961393 -26.83636 11.03713 5.667814 -19.61807 11.59347 88.49198 39.12008 -20.44764 -0 0 12.30524 -5.177944 7.848463 4.45838 5.366988 -20.33442 -2.451146 -89.7558 22.01717 18.25711 0 0 -21.45104 15.75038 10.57246 -3.395349
1.672013 101.5497 11.81791 -0.09024208 2.612928 1.30596 6.559657 -29.62771 6.654819 -0 23.48918 -0 -6.516074 -8.436458 -1.22766 -7.123733 12.75122 -19.45438 -0 7.565362 -0 12.8753 -18.69984 25.04981 -2.92298 -2.325266 4.25164 3.307929 10.63319 -7.805184 1.40717 21.03202 7.529959 2.939837 -27.11936 11.05347 5.619809 -19.62772 11.66372 88.68314 38.91227 -20.88093 -0 0 11.98562 -5.02818 7.795526 4.553814 5.333294 -20.41137 -2.57379 -89.65252 22.24454 18.2781 0 0 -22.198 15.60198 10.24542 -3.043927
1.976783 100.9304 15.33294 -0.4997393 3.007391 1.659669 7.020908 -31.90801 5.684464 -0 20.75877 -0 -7.235856 -6.133331 -0.6945113 -6.815896 13.36643 -18.33818 -0 9.20625 -0 12.0603 -19.13863 23.54587 -2.856397 -2.289242 4.198365 3.462469 10.63865 -7.910512 1.339641 20.9544 7.565924 2.904086 -27.31338 11.02846 5.567773 -19.55522 11.74056 88.83382 38.63828 -21.28864 -0 0 11.61315 -4.952543 7.793814 4.673694 5.294983 -20.47456 -2.697157 -89.53401 22.43104 18.26549 0 0 -22.87084 15.3636 9.954309 -2.624906
2.279297 100.359 19.37763 -0.953094 3.31444 2.121652 7.51344 -33.55705 4.843494 -0 18.66651 -0 -8.044508 -3.959211 -0.1617578 -6.459476 13.9358 -17.13416 -0 11.65967 -0 11.1011 -18.9443 21.83543 -2.76152 -2.228462 4.135565 3.61334 10.63002 -8.003155 1.279832 20.89375 7.570324 2.855332 -27.40826 10.96002 5.514915 -19.39814 11.81974 88.93897 38.30072 -21.66034 -0 0 11.19933 -4.955575 7.843097 4.808904 5.254124 -20.52396 -2.816983 -89.40554 22.56883 18.21698 0 0 -23.43026 15.03668 9.716481 -2.149493
2.582293 99.93215 23.99473 -1.489197 3.422828 2.670321 8.073439 -34.32666 4.136334 -0 17.45503 -0 -8.980459 -2.036625 0.3192034 -5.996035 14.35796 -15.75954 -0 15.31589 -0 9.803446 -17.95065 19.80764 -2.642113 -2.140917 4.06584 3.748432 10.60955 -8.075723 1.233791 20.85845 7.535821 2.794902 -27.37709 10.84375 5.46701 -19.15194 11.89614 88.98867 37.91494 -21.96729 -0 0 10.76485 -5.046892 7.946976 4.948045 5.21017 -20.55571 -2.927678 -89.27018 22.64084 18.12396 0 0 -23.81852 14.62797 9.556288 -1.639961
2.892198 99.75224 29.1817 -2.105152 3.250234 3.229035 8.704216 -33.95233 3.629585 -0 17.18709 -0 -9.953863 -0.6274575 0.6251248 -5.396343 14.40403 -14.1937 -0 20.53655 -0 8.020034 -16.06539 17.46389 -2.506332 -2.029815 3.994777 3.85829 10.58356 -8.124168 1.206542 20.85626 7.454348 2.723958 -27.20587 10.67613 5.43282 -18.82386 11.96523 88.9706 37.48587 -22.18223 -0 0 10.34293 -5.22151 8.096808 5.075415 5.159977 -20.56714 -3.023481 -89.14841 22.6467 17.99816 0 0 -23.96566 14.14028 9.502665 -1.109546
3.216671 99.90096 34.87499 -2.704556 2.70967 3.657 9.281288 -32.14854 3.278658 -0 17.51315 -0 -10.79324 0.03630849 0.617267 -4.688389 13.74228 -12.45166 -0 27.64618 -0 5.739526 -13.32783 14.93421 -2.364098 -1.899088 3.932509 3.931364 10.56166 -8.142048 1.202863 20.89656 7.316161 2.643775 -26.88246 10.45232 5.423211 -18.43011 12.02354 88.86635 37.01776 -22.26695 -0 0 9.980647 -5.470224 8.277378 5.176438 5.096657 -20.55324 -3.097968 -89.07143 22.59295 17.86534 0 0 -23.7897 13.57477 9.58615 -0.5674316
